# xmcd
#
# Track frame offsets:
#	150
#	14857
#	28471
#	45874
#	60172
#	73014
#	86580
#	102980
#	114176
#	128188
#
# Disc length: 1934 seconds
#
# Revision: 0
# Processed by: cddbd v1.5.1PL0 Copyright (c) Steve Scherf et al.
# Submitted via: dBpowerAMP V4.0
#
DISCID=80078c0a
DTITLE=Randy Travis - Greatest Hits Vol. 1
DYEAR=1992
DGENRE=Country
TTITLE0=If I Didn't Have You
TTITLE1=1982
TTITLE2=Hard Rock Bottom Of Your Heart
TTITLE3=On The Other Hand
TTITLE4=Honky Tonk Moon
TTITLE5=An Old Pair Of Shoes
TTITLE6=I Told You So
TTITLE7=Too Gone Too Long
TTITLE8=Heroes And Friends
TTITLE9=Deeper Than The Holler
EXTD=
EXTT0=
EXTT1=
EXTT2=
EXTT3=
EXTT4=
EXTT5=
EXTT6=
EXTT7=
EXTT8=
EXTT9=
PLAYORDER=
